<?xml version="1.0" encoding="utf-8"?>
<!-- Generator: Adobe Illustrator 26.0.3, SVG Export Plug-In . SVG Version: 6.00 Build 0)  -->
<svg version="1.1" id="Laag_1" xmlns="http://www.w3.org/2000/svg" xmlns:xlink="http://www.w3.org/1999/xlink" x="0px" y="0px"
	 viewBox="0 0 1000 1000" style="enable-background:new 0 0 1000 1000;" xml:space="preserve">
<style type="text/css">
	.st0{fill:#0077FE;}
</style>
<g>
	<path class="st0" d="M951.48,628.81c0.6,37.13-4.19,73.62-13.38,109.54c-20.04,78.35-94.54,104.98-158.82,56.18
		c-87.78-66.63-186.45-99.13-296.51-94.37c-95.56,4.13-181.08,36.72-256.97,95.14c-37.34,28.74-81.51,31.15-116.37,7.96
		c-19.1-12.71-31.74-30.2-38.15-52.21C-4.44,491.17,173.42,217.55,441.61,184.45c143.96-17.77,273.31,18.48,380.02,119.89
		c74.21,70.51,110.49,160.71,125.7,260.38C950.57,585.94,951.92,607.33,951.48,628.81z"/>
</g>
</svg>
