<?xml version="1.0" encoding="utf-8"?>
<!-- Generator: Adobe Illustrator 26.0.3, SVG Export Plug-In . SVG Version: 6.00 Build 0)  -->
<svg version="1.1" id="Laag_1" xmlns="http://www.w3.org/2000/svg" xmlns:xlink="http://www.w3.org/1999/xlink" x="0px" y="0px"
	 viewBox="0 0 390 89.94" style="enable-background:new 0 0 390 89.94;" xml:space="preserve">
<style type="text/css">
	.st0{fill:#2E384D;}
	.st1{fill:#0077FE;}
</style>
<g>
	<g>
		<path class="st0" d="M113.29,67.05V32.7h10.02v3.94c0.41-0.76,0.97-1.45,1.73-2.07c0.76-0.62,1.59-1.11,2.49-1.59
			c0.9-0.41,1.8-0.76,2.83-0.97c0.97-0.21,1.94-0.35,2.83-0.35c2.49,0,4.56,0.48,6.29,1.38c1.73,0.97,2.97,2.28,3.87,4.01
			c1.31-1.93,2.83-3.32,4.56-4.15c1.73-0.83,3.73-1.24,6.08-1.24c1.59,0,3.18,0.21,4.77,0.69c1.52,0.48,2.9,1.31,4.08,2.35
			c1.17,1.04,2.07,2.42,2.83,4.08c0.69,1.66,1.04,3.66,1.04,6.01v22.25h-10.16v-19.9c0-1.59-0.41-2.97-1.31-4.15
			c-0.9-1.11-2.28-1.66-4.15-1.66c-1.87,0-3.32,0.62-4.28,1.8c-0.97,1.17-1.45,2.56-1.45,4.08v19.83h-10.37v-19.9
			c0-1.59-0.41-2.97-1.31-4.15c-0.9-1.11-2.28-1.66-4.22-1.66c-1.87,0-3.25,0.62-4.22,1.8c-0.97,1.17-1.45,2.56-1.45,4.15v19.76
			H113.29z"/>
		<path class="st0" d="M175.13,19.78c0.35-0.76,0.76-1.38,1.31-1.94c0.55-0.55,1.18-0.97,1.94-1.31c0.76-0.35,1.52-0.48,2.35-0.48
			c1.73,0,3.25,0.62,4.42,1.8s1.8,2.63,1.8,4.35s-0.62,3.18-1.8,4.35s-2.69,1.8-4.42,1.8c-0.83,0-1.59-0.14-2.35-0.48
			c-0.76-0.35-1.38-0.76-1.94-1.31c-0.55-0.55-0.97-1.24-1.31-2c-0.35-0.76-0.48-1.52-0.48-2.35
			C174.65,21.37,174.79,20.54,175.13,19.78z M175.55,67.05V32.7h10.5v34.35H175.55z"/>
		<path class="st0" d="M205.75,67.05h-10.5V32.7h10.16v3.94c0.48-0.83,1.04-1.52,1.8-2.14c0.76-0.62,1.52-1.11,2.42-1.52
			c0.83-0.35,1.73-0.69,2.7-0.9c0.9-0.21,1.8-0.28,2.7-0.28c2.14,0,4.01,0.35,5.6,1.04c1.59,0.76,2.9,1.73,3.94,2.97
			c1.04,1.24,1.8,2.7,2.28,4.35c0.48,1.66,0.69,3.46,0.69,5.32v21.56h-10.5V47.28c0-1.73-0.41-3.11-1.31-4.28
			c-0.9-1.11-2.35-1.66-4.28-1.66c-1.73,0-3.11,0.55-4.15,1.66c-1.04,1.17-1.52,2.63-1.52,4.35V67.05z"/>
		<path class="st0" d="M248.94,32.7h6.7v9.19h-6.7v12.85c0,1.45,0.35,2.35,1.04,2.83c0.69,0.48,1.59,0.76,2.76,0.76
			c0.55,0,1.11-0.07,1.59-0.14c0.48-0.07,0.83-0.14,1.17-0.21v8.71c-0.21,0.07-0.76,0.28-1.66,0.55c-0.9,0.28-2.14,0.42-3.8,0.42
			c-3.59,0-6.43-0.97-8.43-2.97c-2-1.93-3.04-4.63-3.04-8.09V41.89h-6.08V32.7h1.73c1.8,0,3.11-0.55,4.01-1.59
			c0.9-1.04,1.31-2.42,1.31-4.01v-4.42h9.4V32.7z"/>
		<path class="st0" d="M262.76,80.18V32.7h10.16v3.52c0.76-1.11,2-2.14,3.73-3.04s3.87-1.31,6.36-1.31c2.49,0,4.7,0.41,6.7,1.31
			s3.66,2.14,5.04,3.73c1.31,1.59,2.35,3.52,3.11,5.67c0.76,2.21,1.11,4.63,1.11,7.19c0,2.63-0.41,5.04-1.17,7.26
			c-0.83,2.21-1.93,4.08-3.39,5.67c-1.45,1.59-3.18,2.83-5.18,3.73c-2,0.9-4.22,1.38-6.63,1.38c-2.21,0-4.15-0.34-5.74-1.04
			c-1.59-0.62-2.83-1.45-3.59-2.42v15.83H262.76z M288.05,46.11c-0.42-1.04-0.97-1.94-1.73-2.7c-0.76-0.69-1.59-1.24-2.49-1.59
			c-0.97-0.35-1.94-0.48-2.97-0.48c-1.04,0-2,0.14-2.9,0.48c-0.97,0.35-1.8,0.9-2.49,1.59c-0.76,0.76-1.31,1.66-1.73,2.7
			s-0.62,2.28-0.62,3.73s0.21,2.69,0.62,3.73s0.97,1.94,1.73,2.63c0.69,0.76,1.52,1.31,2.49,1.66c0.9,0.35,1.87,0.55,2.9,0.55
			c1.04,0,2-0.21,2.97-0.55c0.9-0.35,1.73-0.83,2.49-1.59c0.76-0.69,1.31-1.59,1.73-2.7c0.41-1.04,0.62-2.28,0.62-3.73
			S288.46,47.14,288.05,46.11z"/>
		<path class="st0" d="M304.5,53.5c0.48-1.17,1.24-2.21,2.14-3.11c0.9-0.83,2-1.52,3.25-2.07c1.17-0.48,2.49-0.9,3.94-1.11
			l8.08-1.24c0.9-0.14,1.59-0.41,1.94-0.83c0.35-0.42,0.55-0.9,0.55-1.52c0-1.04-0.42-1.87-1.24-2.63c-0.9-0.76-2.14-1.11-3.8-1.11
			c-1.87,0-3.25,0.48-4.22,1.52c-1.04,1.04-1.59,2.21-1.66,3.52l-9.12-1.87c0.07-1.24,0.48-2.56,1.11-3.87s1.59-2.56,2.83-3.66
			c1.17-1.11,2.69-2,4.56-2.76c1.87-0.76,4.01-1.11,6.57-1.11c2.76,0,5.11,0.35,7.05,1.04c1.93,0.76,3.52,1.73,4.77,2.9
			c1.17,1.24,2.07,2.7,2.63,4.28c0.48,1.59,0.76,3.32,0.76,5.04v16.79c0,1.31,0.07,2.49,0.21,3.52c0.07,1.04,0.14,1.59,0.21,1.8
			h-9.47c-0.07-0.14-0.14-0.55-0.21-1.17c-0.07-0.62-0.14-1.52-0.14-2.7c-0.9,1.45-2.21,2.63-3.8,3.52s-3.59,1.31-5.87,1.31
			c-1.87,0-3.59-0.28-5.04-0.9c-1.45-0.55-2.7-1.31-3.73-2.28c-1.04-0.97-1.8-2.07-2.28-3.32c-0.55-1.24-0.83-2.56-0.83-3.94
			C303.67,56.06,303.94,54.68,304.5,53.5z M320.46,60.07c0.76-0.21,1.38-0.55,2-1.11c0.55-0.48,1.04-1.17,1.38-2.07
			s0.55-2,0.55-3.32v-1.52l-6.5,1.04c-1.11,0.21-2,0.55-2.76,1.11c-0.76,0.62-1.11,1.52-1.11,2.7c0,0.9,0.35,1.73,0.97,2.42
			c0.62,0.76,1.66,1.11,3.11,1.11C318.87,60.41,319.7,60.27,320.46,60.07z"/>
		<path class="st0" d="M377.26,60.9c0,1.59,0.07,2.9,0.14,3.94c0.07,1.11,0.07,1.87,0.14,2.21h-10.09
			c-0.07-0.21-0.07-0.69-0.14-1.31c-0.07-0.62-0.14-1.31-0.14-2c-0.76,1.17-2,2.14-3.59,2.9c-1.66,0.76-3.52,1.17-5.6,1.17
			c-2.42,0-4.7-0.48-6.77-1.38s-3.87-2.14-5.39-3.73c-1.52-1.59-2.7-3.46-3.52-5.67c-0.9-2.21-1.31-4.63-1.31-7.26
			c0-2.56,0.41-4.91,1.24-7.12c0.83-2.14,2-4.08,3.46-5.67s3.25-2.9,5.25-3.8s4.28-1.31,6.7-1.31c1.45,0,2.76,0.14,3.8,0.35
			c1.04,0.28,1.94,0.55,2.7,0.9c0.76,0.35,1.31,0.76,1.8,1.17c0.42,0.41,0.76,0.76,0.97,1.11V17.01h10.37V60.9z M352.18,53.57
			c0.41,1.04,0.97,1.94,1.73,2.63c0.69,0.76,1.52,1.31,2.49,1.66c0.9,0.35,1.87,0.55,2.9,0.55c1.04,0,2-0.21,2.97-0.55
			c0.9-0.35,1.73-0.9,2.49-1.66c0.69-0.69,1.24-1.59,1.66-2.63c0.42-1.04,0.62-2.28,0.62-3.73s-0.21-2.7-0.62-3.73
			c-0.41-1.04-0.97-1.94-1.66-2.7c-0.76-0.69-1.59-1.24-2.49-1.59c-0.97-0.35-1.94-0.48-2.97-0.48c-1.04,0-2,0.14-2.9,0.48
			c-0.97,0.35-1.8,0.9-2.49,1.59c-0.76,0.76-1.31,1.66-1.73,2.7c-0.42,1.04-0.62,2.28-0.62,3.73S351.76,52.53,352.18,53.57z"/>
	</g>
	<g>
		<path class="st1" d="M94.42,57.96c0.06,3.41-0.39,6.77-1.23,10.07c-1.84,7.2-8.69,9.65-14.6,5.17
			c-8.07-6.13-17.14-9.11-27.26-8.68c-8.79,0.38-16.65,3.38-23.63,8.75C24.27,75.91,20.21,76.13,17,74
			c-1.76-1.17-2.92-2.78-3.51-4.8c-6.96-23.89,9.39-49.05,34.05-52.09c13.24-1.63,25.13,1.7,34.94,11.02
			c6.82,6.48,10.16,14.78,11.56,23.94C94.34,54.02,94.46,55.99,94.42,57.96z"/>
	</g>
</g>
</svg>
